<?xml version="1.0" encoding="UTF-8"?>
<!DOCTYPE svg PUBLIC "-//W3C//DTD SVG 1.1//EN" "http://www.w3.org/Graphics/SVG/1.1/DTD/svg11.dtd">
<!-- Creator: CorelDRAW X8 -->
<svg xmlns="http://www.w3.org/2000/svg" xml:space="preserve" width="170.688mm" height="170.688mm" version="1.1" style="shape-rendering:geometricPrecision; text-rendering:geometricPrecision; image-rendering:optimizeQuality; fill-rule:evenodd; clip-rule:evenodd"
viewBox="0 0 17069 17069"
 xmlns:xlink="http://www.w3.org/1999/xlink">
 <defs>
  <style type="text/css">
   <![CDATA[
    .fil0 {fill:none}
    .fil1 {fill:black}
   ]]>
  </style>
 </defs>
 <g id="Camada_x0020_1">
  <metadata id="CorelCorpID_0Corel-Layer"/>
  <g id="_870579936">
   <rect class="fil0" width="17069" height="17069"/>
   <path class="fil1" d="M2879 13864c581,-141 1011,257 1113,691 284,1208 -1528,1618 -1815,440 -142,-583 243,-1020 702,-1131zm7376 1034c-153,-1275 1720,-1432 1852,-242 60,546 -328,985 -813,1041 -540,63 -984,-340 -1039,-799zm-4241 -5423c-460,0 -917,0 -1376,1 -1040,0 -1280,-302 -1587,-1177l-1469 -4034c-112,-301 -286,-717 -358,-1012l11493 -4c-30,310 -328,1175 -441,1576l-887 3103c-83,280 -415,1328 -418,1548l-4957 -1zm5532 280c-8,-252 275,-1074 352,-1353l1474 -5160c513,-1782 335,-1863 1461,-1863 403,0 1292,47 1641,-14l-2 -594c-284,-54 -1024,-15 -1357,-15 -662,0 -1603,-113 -1913,834 -102,312 -225,725 -293,1034l-11375 0c-350,0 -552,-27 -760,190 -178,186 -229,405 -127,693l1505 4139c358,1006 501,1878 1470,2306 567,250 2831,147 3627,147 1257,0 2518,-2 3774,0l1127 1238c259,256 502,567 278,944 -257,435 -957,309 -1546,309l-9351 0 -5 623 1318 2 -290 93c-262,94 -477,248 -666,461 -223,251 -391,674 -356,1129 60,787 717,1430 1554,1428 1196,-2 2093,-1377 1181,-2576 -224,-295 -605,-425 -939,-537l7623 7c-1975,401 -1598,3087 213,3106 1807,19 2257,-2655 248,-3107 669,-43 920,56 1343,-364 508,-504 509,-1165 6,-1776l-1215 -1324z"/>
  </g>
 </g>
</svg>
